<svg width="34" height="35" viewBox="0 0 34 35" fill="none" xmlns="http://www.w3.org/2000/svg">
<g id="6323a6a5ed516738feb2689c_Testimonial.svg">
<path id="Vector" d="M10.3146 18.2636C11.6411 18.2636 12.6757 18.7953 13.4185 19.8586C14.2144 20.866 14.6123 22.1253 14.6123 23.6364C14.6123 25.2595 14.0817 26.6027 13.0206 27.666C11.9594 28.6734 10.6329 29.1772 9.04117 29.1772C7.23718 29.1772 5.75155 28.4776 4.58424 27.0784C3.41695 25.6793 2.83331 23.8603 2.83331 21.6217C2.83331 18.4874 3.78837 15.6331 5.69848 13.0586C7.6086 10.4842 10.4472 8.30145 14.2144 6.5105V8.60926C11.9859 9.67264 10.0758 11.0718 8.48406 12.8068C6.8923 14.4858 6.09642 16.1648 6.09642 17.8438C6.09642 18.9631 6.38824 19.5229 6.97189 19.5229C7.078 19.5229 7.21066 19.4948 7.36983 19.4389C7.52901 19.3269 7.68819 19.2431 7.84736 19.187C8.64323 18.5714 9.46565 18.2636 10.3146 18.2636ZM26.8689 18.2636C28.1953 18.2636 29.2301 18.7953 29.9728 19.8586C30.7687 20.866 31.1666 22.1253 31.1666 23.6364C31.1666 25.2595 30.6361 26.6027 29.5749 27.666C28.5137 28.6734 27.1872 29.1772 25.5955 29.1772C23.7915 29.1772 22.3058 28.4776 21.1385 27.0784C19.9713 25.6793 19.3876 23.8603 19.3876 21.6217C19.3876 18.4874 20.3427 15.6331 22.2528 13.0586C24.1629 10.4842 27.0015 8.30145 30.7687 6.5105V8.60926C28.5403 9.67264 26.6302 11.0718 25.0384 12.8068C23.4467 14.4858 22.6508 16.1648 22.6508 17.8438C22.6508 18.9631 22.9426 19.5229 23.5261 19.5229C23.6322 19.5229 23.765 19.4948 23.9241 19.4389C24.0833 19.3269 24.2425 19.2431 24.4016 19.187C25.1975 18.5714 26.0199 18.2636 26.8689 18.2636Z" fill="#FF6D2C"/>
</g>
</svg>
